<svg xmlns="http://www.w3.org/2000/svg" xml:space="preserve" style="fill-rule:evenodd;clip-rule:evenodd;stroke-linejoin:round;stroke-miterlimit:2" viewBox="0 0 800 800"><path d="M0 0h800v800H0z"/><path d="m512.9 625.3-1 1-15.9-20-17-21.8a69.4 69.4 0 0 1-30 34.1c-13.3 7.4-31.7 11.2-55.2 11.2-35.7 0-61.5-7.6-77.6-22.7-16-15-24.9-39.8-26.4-74.3v-29c0-7 .2-13.9.5-21l1.8-28.7c1.2-20.4 6-37.3 14.4-50.6 8.4-13.3 18.1-25 29.1-35.2-8.6-20.8-15.7-41-21.2-60.6A248.4 248.4 0 0 1 305 252c-3.5-31.3 2-56.1 16.5-74.3 14.5-18.3 38.4-27.4 71.7-27.4 32.5 0 56 8.4 70.2 25 14.3 16.7 20 40.9 17.4 72.6a168.2 168.2 0 0 1-19.7 70.8 309.1 309.1 0 0 1-50.3 66.1 827.2 827.2 0 0 0 41.2 75.8 500 500 0 0 0-2.7-35.5c-1.4-12.8-2.8-25.2-4.4-37.4l51.7-.5a925.4 925.4 0 0 1 5.9 136.3c6.8 9.3 13.4 18 19.7 26l48.1-393.1h105.8l57.6 470.1H669l-11-117.6h-69l-11 117.5h-65.3l.2-1Zm-446.6 1.1L124 156.3h105.8l57.6 470.1h-64.7l-11.1-117.5h-68.8l-11.2 117.5H66.3Zm329.2-47.2c15 0 25.3-3.4 31.2-10.3 5.9-6.8 10-17.5 12.3-32a1054.4 1054.4 0 0 1-37.9-55.5c-12.3-19.4-24-38.9-35-58.5a77.6 77.6 0 0 0-12.3 34c-1.2 7.5-2 14.6-2.3 21.3-.4 6.6-.6 14.3-.6 22.9 0 8.6.2 19.8.6 33.5a51.6 51.6 0 0 0 11.7 33.2c7 7.6 17.8 11.4 32.3 11.4ZM148.5 453H205l-10-103.4-10-137h-16.4l-10 137-10 103.4Zm446.5 0h56.4l-10-103.4-10-137H615l-10 137L595 453ZM383.2 335.3c15.3-17.6 26-33.3 32-47 6.1-13.7 9.5-27.2 10.3-40.5 2.4-17.3 1.2-30.8-3.5-40.6s-14.3-14.7-28.8-14.7c-12.2 0-20.7 4.7-25.6 14.1-4.9 9.5-7 21.2-6.1 35.3 0 13.3 2 28 6.1 44 4.1 16.1 9.3 32.6 15.6 49.4Z" style="fill:#fff;fill-rule:nonzero"/></svg>