<svg xmlns="http://www.w3.org/2000/svg" xml:space="preserve" style="fill-rule:evenodd;clip-rule:evenodd;stroke-linejoin:round;stroke-miterlimit:2" viewBox="0 0 3318 4312"><path d="M750 0 394 1875v209l1925 1601.99h50L2807 2784l118.56-559v-59L1664.78 439 750 0Z" style="fill:#fff"/><path d="M1392.0951954 3685.98997h927.1981456c-8.999982-33.999932-38.999922-155.999688-5.999988-262.999474 0 0-47.999904-326.999346-50.999898-386.999226 0 0-86.999826-271.999456-82.999834-367.999264 4.99999 0-3.999992-133.999732 15.999968-133.999732 49.9999 0 52.999894 77.999844 154.99969 133.999732 0 0 .999998 48.999902-.999998 121.999756-.999998 57.999884-4.99999 134.99973.999998 190.999618 9.99998 117.999764 38.999922 89.99982 31.999936 206.999586-9.99998 159.99968-2.999994 225.999548 17.999964 234.99953 18.999962 8.999982 40.999918 18.999962 32.999934 50.999898-11.999976 41.999916-53.999892 36.999926-64.99987 87.999824v123.999752h556.998886V2224.992892c-62.999874-.999998-139.99972 0-160.999678-3.999992-33.999932-6.999986-129.99974-46.999906-238.999522-59.99988l-43.999912 42.999914c-41.999916 4.99999-19.99996-113.999772-72.999854-109.99978-84.99983 4.99999-98.999802 98.999802-98.999802 98.999802-4.99999 1.999996-12.999974 9.99998-13.999972 4.99999-13.999972-70.999858-59.99988-108.999782-75.999848-106.999786-32.999934 3.999992-30.999938 106.999786-30.999938 106.999786s-7.999984-39.99992-45.999908-101.999796c-38.999922-64.99987-78.999842-146.999706-123.999752-229.99954 0 0-13.999972-37.999924 22.999954-252.999494 0 0 13.999972-28.999942 82.999834-110.999778 0 0 9.99998-27.999944 8.999982-31.999936l22.999954 13.999972c42.999914 8.999982-7.999984 111.999776-77.999844 146.999706-12.999974 6.999986 0 220.999558 0 220.999558s59.99988 93.999812 77.999844 138.999722c0 0 39.99992 16.999966 82.999834 58.999882 7.999984 7.999984 37.999924-.999998 36.999926-17.999964-.999998-16.999966 3.999992-66.999866-8.999982-77.999844 0 0-44.99991-.999998-50.999898-22.999954 0 0-41.999916-82.999834 45.999908-156.999686 0 0 47.999904-31.999936 133.999732 40.999918 17.999964 15.999968 8.999982 49.9999 17.999964 64.99987 8.999982 14.99997 21.999956 49.9999-36.999926 91.999816 0 0-9.99998 72.999854 82.999834 82.999834 92.999814 9.99998 72.999854 21.999956 170.999658 64.99987 0 0 40.999918 16.999966 109.99978 17.999964 50.999898.999998 103.999792 12.999974 183.999632 28.999942v57.999884c41.999916 0 77.999844.999998 82.999834 4.99999 34.99993 23.999952 77.999844 50.999898 101.999796 59.99988 23.999952 8.999982 40.999918 8.999982 40.999918 8.999982-16.999966-55.999888-39.99992-73.999852-36.999926-73.999852 1.999996.999998-.999998-7.999984 27.999944 0 60.999878 17.999964 59.99988 4.99999 59.99988 4.99999-18.999962-5.999988-54.99989-27.999944-54.99989-27.999944-18.999962-3.999992-147.999704-17.999964-147.999704-17.999964-34.99993-5.999988-46.999906-11.999976-73.999852-16.999966V-.002658m0 0H393.297193v1874.99625c11.999976-10.999978 24.99995-20.999958 37.999924-28.999942 46.999906-31.999936 134.99973-181.999636 201.999596-291.999416 11.999976-90.999818 113.999772-125.999748 144.99971-152.999694 27.999944-22.999954 82.999834-111.999776 58.999882-275.999448-9.99998-66.999866-19.99996-150.999698 8.999982-186.999626 46.999906-57.999884 46.999906-55.999888-8.999982-97.999804-28.999942-21.999956-40.999918-62.999874-40.999918-62.999874-31.999936-9.99998-44.99991-44.99991-44.99991-44.99991 2.999994-22.999954 39.99992-26.999946 39.99992-26.999946 9.99998-12.999974 29.99994-27.999944 45.999908-44.99991 40.999918-45.999908 81.999836-58.999882 81.999836-58.999882-3.999992-37.999924 2.999994-92.999814 15.999968-138.999722 8.999982-30.999938 16.999966-103.999792 30.999938-118.999762 27.999944-28.999942 81.999836-6.999986 81.999836-6.999986 27.999944 54.99989-43.999912 35.999928-60.999878 125.999748-6.999986 33.999932 3.999992 143.999712 3.999992 143.999712 27.999944 9.99998 53.999892 19.99996 65.999868 38.999922 19.99996 34.99993 9.99998 99.9998 9.99998 99.9998-9.99998 12.999974 30.999938-4.99999 81.999836-72.999854 47.999904-64.99987 50.999898-136.999726 52.999894-221.999556-19.99996-21.999956-63.999872-35.999928-59.99988-41.999916 38.999922-55.999888 105.999788 13.999972 105.999788 13.999972 8.999982 144.99971 7.999984 207.999584-40.999918 290.999418-37.999924 62.999874-73.999852 105.999788-96.999806 129.99974-86.999826 91.999816-89.99982 93.999812-86.999826 108.999782 84.99983 175.999648 77.999844 293.999412-8.999982 431.999136-21.999956 34.99993-26.999946 82.999834-43.999912 112.999774-63.999872 113.999772-296.999406 332.999334-392.999214 402.999194-24.99995 17.999964-60.999878 48.999902-60.999878 48.999902l-118.999762 129.99974-3.999992 4.99999v-208.999582c-60.999878 53.999892-111.999776 140.999718-193.999612 230.999538 0 0-44.99991 53.999892-102.999794 62.999874-44.99991 6.999986-14.99997 106.999786-28.999942 147.999704-13.999972 41.999916-91.999816 78.999842-55.999888 139.99972l21.999956 30.999938s15.999968-45.999908 87.999824-93.999812l103.999792-121.999756 167.999664-187.999624V3685.98997h998.7980024m580.8188384-1383.7472325-10.6199788-1.2499975h22.999954c14.99997-11.999976 72.999854-55.999888 161.999676-70.999858-77.999844.999998-142.999714 28.999942-189.99962 70.999858l15.6199688 1.2499975 6.3799872.7499985-22.0799558-1.9199962.0799998-.0799998-81.999836-5.999988-4.99999-.999998c-228.999542-25.999948-261.999476 32.999934-261.999476 32.999934-11.999976 13.999972.999998 49.9999 13.999972 54.99989 38.999922 13.999972 132.999734-3.999992 132.999734-3.999992 8.999982 59.99988 73.999852 45.999908 73.999852 45.999908 21.999956-37.999924 51.999896-41.999916 63.999872-41.999916v.999998l-3.999992 6.999986c-64.99987 58.999882-56.999886 101.999796-18.999962 134.99973 16.999966 87.999824 101.999796 152.999694 271.999456 121.999756-7.999984-30.999938-197.999604-56.999886-271.999456-121.999756-8.999982-41.999916-1.999996-89.99982 18.999962-134.99973l8.999982-7.999984c125.999748 37.999924 232.999534 77.999844 330.999338 28.999942 26.999946 30.999938 38.999922 87.999824 62.999874 137.999724 17.999964 38.999922 65.999868 98.999802 98.999802 95.999808 117.999764-15.999968 134.99973-104.99979 91.999816-174.99965-39.99992-66.999866-66.999866-64.99987-134.99973-142.999714-22.999954-25.999948-45.999908-51.999896-75.999848-61.999876-16.999966-5.999988-39.99992 19.99996-90.999818 29.99994l-195.999608 5.999988-2.999994 1.999996-9.3799812-.7499985m691.3786172 3.7499925c94.99981 119.99976 65.999868 337.999324-97.999804 338.999322-2.999994 1.999996.999998 3.999992 68.999862-4.99999 117.999764-15.999968 231.999536-122.999754 188.999622-192.999614-37.999924-62.999874-99.9998-107.999784-159.99968-140.999718-36.999926-45.999908-92.999814-77.999844-166.999666-75.999848-45.999908.999998 57.999884 17.999964 166.999666 75.999848m-101.999796 338.999322h3.999992v-.999998l-3.999992.999998m-605.0787898-343.9193122-.9199982-.0799998v.999998l.9199982-.9199982"/><path d="M496.847 4308.45c-32.419 0-55.486-6.85-69.202-20.57-13.716-13.72-21.108-36.43-22.177-68.13-.712-26.37-1.158-54.33-1.336-83.9-.178-29.57-.178-59.14 0-88.71.178-29.57.624-57.35 1.336-83.36 1.069-33.13 8.55-56.65 22.444-70.54 13.894-13.89 36.872-20.84 68.935-20.84 30.281 0 52.368 6.77 66.262 20.31 13.894 13.53 21.731 36.16 23.513 67.86 1.425 23.52 1.425 47.03 0 70.54h-57.713c.713-12.11 1.069-25.56 1.069-40.35 0-14.78-.356-28.23-1.069-40.34-1.069-20.31-11.756-30.46-32.062-30.46-21.375 0-32.597 10.15-33.666 30.46-1.425 44.53-2.138 91.11-2.138 139.74 0 48.63.713 95.21 2.138 139.74.712 20.66 11.934 30.99 33.666 30.99 22.443 0 34.2-10.33 35.268-30.99.713-10.33 1.069-22 1.069-35 0-13.01-.356-24.5-1.069-34.47h-32.062v-50.77h88.706c.713 14.97.98 31.89.802 50.77-.178 18.88-.624 38.65-1.336 59.32-1.425 31.7-9.174 54.41-23.245 68.13-14.072 13.72-36.783 20.57-68.133 20.57Zm821.333 0c-32.06 0-54.86-6.85-68.4-20.57-13.53-13.72-21.02-36.43-22.44-68.13-.36-12.47-.45-24.59-.27-36.34.18-11.76.8-24.05 1.87-36.87h54.51c-.71 14.6-1.16 29.03-1.34 43.28-.18 14.25.27 27.61 1.34 40.08.71 10.69 3.83 18.52 9.35 23.51 5.52 4.99 13.98 7.48 25.38 7.48 11.05 0 19.15-2.49 24.32-7.48 5.16-4.99 8.1-12.82 8.81-23.51 1.07-12.11 1.52-23.07 1.34-32.87-.18-9.79-.62-21.28-1.34-34.46-.71-10.33-2.85-19.24-6.41-26.72s-9.97-12.47-19.24-14.96l-35.8-9.09c-24.22-6.06-40.79-16.56-49.7-31.53-8.9-14.96-13.71-35.27-14.42-60.92v-29.39c0-9.97.17-19.77.53-29.39 1.07-31.7 8.46-54.33 22.18-67.86 13.71-13.54 36.96-20.31 69.73-20.31 30.64 0 52.91 6.77 66.8 20.31 13.89 13.53 21.38 36.16 22.44 67.86.36 8.91.45 19.69.27 32.33-.18 12.65-.44 25.39-.8 38.21h-55.58c.36-13.54.63-26.99.81-40.35.17-13.35-.09-26.8-.81-40.34-.71-20.31-11.93-30.46-33.66-30.46-11.05 0-19.24 2.49-24.58 7.48-5.35 4.99-8.38 12.65-9.09 22.98-1.07 11.4-1.51 22.89-1.33 34.47.18 11.58.62 23.06 1.33 34.46.71 11.76 2.94 21.02 6.68 27.79 3.74 6.77 10.6 11.4 20.58 13.9l32.06 7.48c25.29 6.05 42.39 16.83 51.3 32.33 8.91 15.49 13.89 36.07 14.96 61.72.36 11.4.45 21.19.27 29.39-.18 8.19-.45 17.45-.8 27.79-1.07 31.7-8.55 54.41-22.45 68.13-13.89 13.72-36.69 20.57-68.4 20.57Zm1237.06-4.27v-427.5h152.83v51.29h-94.59v134.13h89.24v51.3h-89.24v139.48h94.59v51.3h-152.83Zm-620.92 0v-427.5h152.83v51.29h-94.58v134.13h89.24v51.3h-89.24v139.48h94.58v51.3h-152.83Zm-1313.498 0v-427.5h58.247v376.2h95.119v51.3H620.822Zm401.848 0v-48.1l111.15-328.11h-104.73v-51.29h166.72v49.16l-114.89 327.04h105.81v51.3h-164.06Zm429.11 0v-427.5h58.24v185.42h61.99v-185.42h57.71v427.5h-57.71V4113.4h-61.99v190.78h-58.24Zm879.02 0v-427.5h88.7c32.07 0 55.31 7.03 69.74 21.1 14.43 14.08 22 37.14 22.71 69.21.71 29.21 1.16 57.08 1.34 83.63.18 26.54.18 52.99 0 79.35-.18 26.36-.63 54.15-1.34 83.36-.71 32.42-8.28 55.67-22.71 69.74-14.43 14.07-37.85 21.11-70.27 21.11h-88.17Zm410.93 0v-427.5h84.43c31.71 0 54.78 6.76 69.21 20.3 14.42 13.54 22.17 35.63 23.24 66.26.71 19.6 1.07 36.88 1.07 51.84s-.36 31.17-1.07 48.63c-1.42 39.9-14.6 65.55-39.54 76.95l46.49 163.52h-61.45l-39.55-153.9h-24.58v153.9h-58.25Zm-562.16 0V4197.3l-4.81-21.91-64.66-298.71h59.32l20.84 112.21 12.29 123.98h11.75l12.29-123.98 20.84-112.21h59.32l-64.66 298.71-4.81 21.91v106.88h-57.71Zm-1380.801 0 52.369-427.5h96.188l52.368 427.5h-58.781L930.76 4197.3h-62.522l-10.153 106.88h-59.316Zm880.121 0v-427.5h89.77l27.79 135.73 34.73 240.47h12.29l-10.15-209.48-4.27-166.72h56.11v427.5h-93.52l-28.86-146.42-28.32-230.32h-13.36l9.09 213.75 4.81 162.99h-56.11Zm710.15-51.3h29.93c23.16 0 34.91-10.87 35.27-32.6 1.78-86.57 1.78-173.14 0-259.71-.36-21.73-11.94-32.6-34.74-32.6h-30.46v324.91ZM873.582 4146.54h51.3l-9.085-94.05-9.084-124.52H891.75l-9.084 124.52-9.084 94.05Zm1926.398-47.56h25.65c22.44 0 34.2-10.69 35.27-32.07 1.78-35.62 1.78-71.07 0-106.34-1.07-21.73-12.65-32.6-34.74-32.6h-26.18v171.01Z" style="fill-rule:nonzero"/></svg>