<svg xmlns="http://www.w3.org/2000/svg" xml:space="preserve" style="fill-rule:evenodd;clip-rule:evenodd;stroke-linejoin:round;stroke-miterlimit:2" viewBox="0 0 3833 4349"><path d="M2056.4 4340.8c-34.6 0-59.8-7.3-75.4-22-15.6-14.7-24.2-38.8-25.7-72.3v-28.3c0-6.7.2-13.4.5-20.3l1.8-28c1.1-19.8 5.8-36.2 14-49.1 8.1-13 17.6-24.4 28.2-34.3a518.7 518.7 0 0 1-20.5-58.9c-5.4-19-8.4-37.2-9.2-54.3-3.4-30.5 2-54.6 16-72.3 14.1-17.7 37.4-26.6 69.8-26.6 31.6 0 54.4 8.1 68.3 24.3 13.9 16.2 19.5 39.7 16.8 70.6a163.5 163.5 0 0 1-19.1 68.9 300.5 300.5 0 0 1-48.9 64.3 802.8 802.8 0 0 0 40 73.7c-.4-10.7-1.2-22.2-2.6-34.6a1663 1663 0 0 0-4.2-36.3l50.3-.5a915 915 0 0 1 6.2 89.1 560 560 0 0 1-.5 43.5 1111.1 1111.1 0 0 0 49.1 62.3l-40 37.7c-5-6.1-10-12.6-15.4-19.5l-16.6-21.1a67.4 67.4 0 0 1-29.1 33.1c-13 7.3-30.9 11-53.8 11Zm-897.9-4.6V3879h90.3c34 0 58.6 7.2 74 21.7 15.5 14.5 23.8 38.1 25 70.9a1284.5 1284.5 0 0 1 0 107.4c-1.6 42.7-15.7 70.1-42.4 82.3l49.7 175h-65.7l-42.3-164.7h-26.3v164.6h-62.3Zm1726.1 0V3879h96l29.8 145.2 37.1 257.2h13.1l-10.8-224-4.6-178.4h60v457.2h-100l-30.9-156.6-30.3-246.3h-14.2l9.7 228.6 5.1 174.3h-60Zm-273.2 0V3879h96l29.7 145.2 37.2 257.2h13.1l-10.8-224-4.6-178.4h60v457.2h-100l-30.9-156.6-30.3-246.3h-14.2l9.7 228.6 5.1 174.3h-60Zm-1966.1 0V3879h96l29.7 145.2 37.2 257.2h13.1l-10.8-224-4.6-178.4h60v457.2h-100L735 4179.6l-30.3-246.3h-14.3l9.7 228.6 5.2 174.3h-60Zm2491.4 0 56-457.2h102.9l56 457.2h-62.9l-10.9-114.3H3211l-10.9 114.3h-63.4Zm-2736 0 56-457.2h102.8l56 457.2h-62.8L541.8 4222H475l-11 114.3h-63.4Zm1966 0 56.1-457.2h102.9l56 457.2h-62.9L2508 4222h-67l-10.8 114.3h-63.4Zm-711 0V4222l-5-23.4-69.2-319.5h63.4l22.3 120 13.1 132.6h12.6l13.2-132.6 22.3-120h63.4l-69.2 319.5-5.1 23.4v114.3h-61.7Zm-737.2 0V3879h94.8c34.3 0 59.2 7.5 74.6 22.6 15.5 15 23.6 39.7 24.3 74a5084.7 5084.7 0 0 1 1.5 174.3c-.2 28.2-.7 58-1.5 89.2-.7 34.6-8.8 59.5-24.3 74.6-15.4 15-40.5 22.5-75.1 22.5h-94.3Zm475 0V3879h163.4v54.9h-101.2v143.4h95.5v54.9h-95.5v149.2H1557v54.8h-163.5Zm664.6-44.5c14.5 0 24.6-3.4 30.3-10a62 62 0 0 0 12-31.2 993.8 993.8 0 0 1-36.8-54 1123 1123 0 0 1-34-56.9 75.4 75.4 0 0 0-12 33.2c-1.2 7.2-2 14-2.3 20.5-.4 6.5-.6 14-.6 22.3 0 8.4.2 19.3.6 32.6a50.2 50.2 0 0 0 11.4 32.3c6.9 7.4 17.3 11.2 31.4 11.2Zm-1077.3-10.3h32c24.7 0 37.3-11.7 37.7-34.9 2-92.6 2-185.2 0-277.8-.4-23.2-12.8-34.8-37.2-34.8h-32.5v347.5Zm1466-113.8h54.9L2492 4067l-9.8-133.1h-16l-9.7 133.1-9.7 100.6Zm-1966.1 0h54.8l-9.7-100.6-9.7-133.1h-16l-9.7 133.1-9.7 100.6Zm2736 0h54.8l-9.7-100.6-9.7-133.1h-16l-9.7 133.1-9.7 100.6Zm-1995.9-50.8h27.5c24 0 36.5-11.5 37.7-34.3 1.9-38.1 1.9-76 0-113.8-1.2-23.2-13.6-34.8-37.2-34.8h-28v182.9Zm825.3-62.3a192.9 192.9 0 0 0 31.2-45.8c5.9-13.3 9.2-26.5 10-39.4 2.3-16.8 1.1-30-3.4-39.4-4.6-9.6-14-14.3-28-14.3-11.9 0-20.1 4.5-24.9 13.7a65.7 65.7 0 0 0-6 34.3c0 13 2 27.2 6 42.8 4 15.7 9 31.7 15.1 48ZM3352 2169c-80-16-133-28-184-29-69-1-110-18-110-18-98-43-78-55-171-65s-83-83-83-83c59-42 46-77 37-92s0-49-18-65c-86-73-134-41-134-41-88 74-46 157-46 157 6 22 51 23 51 23 13 11 8 61 9 78s-29 26-37 18c-43-42-83-59-83-59-18-45-78-139-78-139s-13-214 0-221c70-35 121-138 78-147l-23-14c1 4-9 32-9 32-69 82-83 111-83 111-37 215-23 253-23 253 45 83 85 165 124 230 38 62 46 102 46 102s-2-103 31-107c16-2 62 36 76 107 1 5 9-3 14-5 0 0 14-94 99-99 53-4 31 115 73 110l44-43c109 13 205 53 239 60 21 4 98 3 161 4v1461h-557v-124c11-51 53-46 65-88 8-32-14-42-33-51-21-9-28-75-18-235 7-117-22-89-32-207-6-56-2-133-1-191 2-73 1-122 1-122-102-56-105-134-155-134-20 0-11 134-16 134-4 96 83 368 83 368 3 60 51 387 51 387-33 107-3 229 6 263H400V2086l-168 188-104 122c-72 48-88 94-88 94l-22-31c-36-61 42-98 56-140 14-41-16-141 29-148 58-9 103-63 103-63 82-90 133-177 194-231v209l4-5 119-130s36-31 61-49c96-70 329-289 393-403 17-30 22-78 44-113 87-138 94-256 9-432-3-15 0-17 87-109 23-24 59-67 97-130 49-83 50-146 41-291 0 0-67-70-106-14-4 6 40 20 60 42-2 85-5 157-53 222-51 68-92 86-82 73 0 0 10-65-10-100-12-19-38-29-66-39 0 0-11-110-4-144 17-90 89-71 61-126 0 0-54-22-82 7-14 15-22 88-31 119-13 46-20 101-16 139 0 0-41 13-82 59-16 17-36 32-46 45 0 0-37 4-40 27 0 0 13 35 45 45 0 0 12 41 41 63 56 42 56 40 9 98-29 36-19 120-9 187 24 164-31 253-59 276-31 27-133 62-145 153-67 110-155 260-202 292-13 8-26 18-38 29V2h2952v2167c27 5 39 11 74 17 0 0 129 14 148 18 0 0 36 22 55 28 0 0 1 13-60-5-29-8-26 1-28 0-3 0 20 18 37 74 0 0-17 0-41-9s-67-36-102-60c-5-4-41-5-83-5v-58Zm-952.4 135.2 9.4.8 3-2 196-6c51-10 74-36 91-30 30 10 53 36 76 62 68 78 95 76 135 143 43 70 26 159-92 175-33 3-81-57-99-96-24-50-36-107-63-138-98 49-205 9-331-29l-9 8c-21 45-28 93-19 135 74 65 264 91 272 122-170 31-255-34-272-122-38-33-46-76 19-135l4-7v-1c-12 0-42 4-64 42 0 0-65 14-74-46 0 0-94 18-133 4-13-5-26-41-14-55 0 0 33-59 262-33l5 1 82 6 22 2-6.4-.8-15.6-1.2c47-42 112-70 190-71-89 15-147 59-162 71h-23l10.6 1.2Zm691.4 3.8c-109-58-213-75-167-76 74-2 130 30 167 76 60 33 122 78 160 141 43 70-71 177-189 193-68 9-72 7-69 5 164-1 193-219 98-339Zm-707-5-1 1v-1h1Z"/><path d="M2745.8 3687c-9.4-35.3-38.5-156-5.8-262 0 0-48-327-51-387 0 0-87-272-83-368 5 0-4-134 16-134 50 0 53 78 155 134 0 0 1 49-1 122-1 58-5 135 1 191 10 118 39 90 32 207-10 160-3 226 18 235 19 9 41 19 33 51-12 42-54 37-65 88v123h-49.3ZM2573 2232.2a359.6 359.6 0 0 0-161 70.8l196-6c45.8-9 69-30.9 85.6-30.9h.2c1.8 0 3.5.3 5.2.9 30 10 53 36 76 62 68 78 95 76 135 143a139 139 0 0 1 21.4 66c2.2 51-31 97.8-113.4 109l-2 .1h-.3c-32.8.1-79-57.8-96.6-95.8l-.1-.3c-24-50-36-107-63-138a220 220 0 0 1-99.7 22.7h-1.3c-69.3 0-144-25.7-227-50.8l-3-.9-9 8c-21 45-28 93-19 135 74 65 264 91 272 122a452.8 452.8 0 0 1-79.4 7.8h-.8c-22.7 0-43.2-2-61.7-6-77-16.5-118.8-65-130.1-123.8-38-33-46-76 19-135l4-7v-1c-12 0-42 4-64 42 0 0-6.3 1.4-15.3 1.4h-.7c-19.8 0-51.7-6.6-58-47v-.4s-48 9.2-89.7 9.3h-.7a134 134 0 0 1-42.6-5.3c-13-5-26-41-14-55 0 0 22.2-39.7 156.6-39.6h2c29 0 63.1 2 103.4 6.6l5 1 82 6 22 2-6.4-.8-15.6-1.2c47-42 112-70 190-71l-1 .2Zm358.7-.3A200 200 0 0 1 3091 2308c60 33 122 78 160 141 43 70-71 177-189 193-38.3 5-56.3 6.6-64.1 6.7h-.4c-5.8 0-5.8-.8-4.5-1.7 164-1 193-219 98-339-109-58-213-75-167-76h7.7Zm-532 72.3ZM3351 2227c-62.8-1-139.1 0-160-4-34-7-130-47-239-60l-44 43c-42 5-20-114-73-110-85 5-99 99-99 99-5 2-13 10-14 5-14-71-60-109-76-107-33 4-31 107-31 107s-8-40-46-102c-39-65-79-147-124-230 0 0-14-38 23-253 0 0 14-29 83-111 0 0 10-28 9-32l23 14c43 9-8 112-78 147-13 7 0 221 0 221s60 94 78 139c0 0 40 17 83 59 8 8 38-1 37-18s4-67-9-78c0 0-45-1-51-23 0 0-42-83 46-157 0 0 48-32 134 41 18 16 9 50 18 65s22 50-37 92c0 0-10 73 83 83s73 22 171 65c0 0 41 17 110 18 50.8 1 103.6 12.9 183 28.8v58.2ZM401 1876a252 252 0 0 1 37-28.1c47-32 135-182 202-292 12-91 114-126 145-153 28-23 83-112 59-276-10-67-20-151 9-187 47-58 47-56-9-98-29-22-41-63-41-63-32-10-45-45-45-45 3-23 40-27 40-27 10-13 30-28 46-45 41-46 82-59 82-59-4-38 3-93 16-139 9-31 17-104 31-119 28-29 82-7 82-7 28 55-44 36-61 126-7 34 4 144 4 144 28 10 54 20 66 39 20 35 10 100 10 100-10 13 31-5 82-73 48-65 51-137 53-222-20-22-64-36-60-42 39-56 106 14 106 14 9 145 8 208-41 291-38 63-74 106-97 130-87 92-90 94-87 109 85 176 78 294-9 432-22 35-27 83-44 113-64 114-297 333-393 403-25 18-61 49-61 49l-119 130-3 3.8V1876Z" style="fill:#fff"/></svg>