<svg xmlns="http://www.w3.org/2000/svg" xml:space="preserve" style="fill-rule:evenodd;clip-rule:evenodd;stroke-linecap:round;stroke-linejoin:round;stroke-miterlimit:1.5" viewBox="0 0 800 800"><path d="M0 0h800v800H0z" style="stroke:#fff;stroke-width:1px"/><path d="M147.267 765.176v-216.65h77.452v25.998h-47.934v67.974h45.226v25.998h-45.226v70.682h47.934v25.998h-77.452Zm-113.741 0v-216.65h44.955c16.248 0 28.029 3.565 35.341 10.697 7.312 7.131 11.148 18.821 11.509 35.07.361 14.805.587 28.932.677 42.382.09 13.451.09 26.856 0 40.216s-.316 27.442-.677 42.247c-.361 16.429-4.197 28.209-11.509 35.341-7.312 7.131-19.183 10.697-35.612 10.697H33.526Zm208.254 0v-216.65h42.788c16.069 0 27.759 3.43 35.07 10.291 7.312 6.86 11.239 18.054 11.781 33.58.361 9.93.541 18.687.541 26.269 0 7.583-.18 15.798-.541 24.644-.722 20.221-7.402 33.22-20.04 38.997l23.56 82.869h-31.143l-20.04-77.994h-12.457v77.994H241.78ZM63.044 739.178H78.21c11.735 0 17.693-5.507 17.873-16.52.903-43.871.903-87.743 0-131.615-.18-11.013-6.048-16.519-17.602-16.519H63.044v164.654Zm208.255-77.994h12.999c11.374 0 17.331-5.416 17.873-16.249.903-18.054.903-36.018 0-53.892-.542-11.013-6.409-16.519-17.603-16.519h-13.269v86.66ZM80.647 511.575c-16.248 0-27.803-3.476-34.664-10.426-6.86-6.951-10.652-18.461-11.374-34.529-.18-6.319-.225-12.457-.135-18.415.09-5.958.406-12.187.948-18.686h27.622c-.361 7.402-.586 14.714-.677 21.935-.09 7.222.136 13.992.677 20.311.362 5.417 1.941 9.389 4.74 11.916 2.798 2.528 7.086 3.792 12.863 3.792 5.597 0 9.704-1.264 12.322-3.792 2.618-2.527 4.107-6.499 4.469-11.916.541-6.138.767-11.69.677-16.655-.091-4.964-.316-10.787-.677-17.467-.362-5.236-1.445-9.749-3.25-13.541-1.806-3.791-5.055-6.319-9.749-7.582l-18.145-4.604c-12.277-3.069-20.672-8.395-25.185-15.978-4.514-7.583-6.951-17.874-7.312-30.873V350.17c0-5.055.09-10.02.271-14.894.541-16.068 4.287-27.533 11.238-34.393 6.951-6.861 18.731-10.291 35.341-10.291 15.527 0 26.811 3.43 33.852 10.291 7.041 6.86 10.832 18.325 11.374 34.393.18 4.513.225 9.975.135 16.384-.09 6.409-.225 12.864-.406 19.363H97.438c.18-6.861.316-13.676.406-20.446.09-6.771-.045-13.586-.406-20.447-.362-10.291-6.049-15.436-17.062-15.436-5.596 0-9.749 1.264-12.457 3.791-2.708 2.528-4.243 6.41-4.604 11.645-.541 5.778-.767 11.6-.677 17.468.091 5.867.316 11.69.677 17.467.361 5.958 1.49 10.652 3.385 14.082 1.896 3.431 5.372 5.778 10.427 7.042l16.248 3.791c12.819 3.069 21.485 8.531 25.998 16.384 4.514 7.854 7.041 18.28 7.583 31.279.181 5.777.226 10.742.135 14.895-.09 4.152-.225 8.846-.406 14.082-.541 16.068-4.333 27.578-11.374 34.529-7.041 6.95-18.596 10.426-34.664 10.426Zm312.246-2.167v-216.65h77.452v25.998h-47.934v67.974h45.226v25.998h-45.226v70.682h47.934v25.998h-77.452Zm-244.543 0v-216.65h29.519v93.972h31.414v-93.972h29.247v216.65h-29.247v-96.68h-31.414v96.68H148.35Zm368.846 0v-54.162l-2.438-11.104-32.768-151.384h30.06l10.562 56.871 6.228 62.828h5.958l6.229-62.828 10.562-56.871h30.06L548.88 444.142l-2.437 11.104v54.162h-29.247Zm-253.751 0v-216.65h45.496l14.083 68.787 17.602 121.865h6.229l-5.145-106.158-2.167-84.494h28.435v216.65h-47.392l-14.624-74.202-14.353-116.721h-6.77l4.604 108.325 2.437 82.598h-28.435ZM80.647 255.807c-16.429 0-28.119-3.475-35.07-10.426-6.951-6.951-10.697-18.46-11.239-34.529-.361-13.36-.586-27.532-.677-42.517-.09-14.985-.09-29.97 0-44.955.091-14.985.316-29.067.677-42.247.542-16.79 4.333-28.706 11.375-35.747 7.041-7.041 18.686-10.562 34.934-10.562 15.346 0 26.54 3.43 33.581 10.291 7.041 6.86 11.013 18.325 11.916 34.393.722 11.916.722 23.832 0 35.747H96.896c.361-6.138.542-12.953.542-20.446 0-7.492-.181-14.308-.542-20.446-.542-10.291-5.958-15.437-16.249-15.437-10.832 0-16.519 5.146-17.061 15.437-.722 22.567-1.083 46.173-1.083 70.817 0 24.644.361 48.25 1.083 70.818.361 10.471 6.048 15.707 17.061 15.707 11.374 0 17.332-5.236 17.874-15.707.361-5.236.541-11.149.541-17.738 0-6.59-.18-12.413-.541-17.468H82.272v-25.727h44.955c.361 7.583.496 16.158.406 25.727-.09 9.569-.316 19.589-.677 30.06-.722 16.069-4.649 27.578-11.78 34.529-7.132 6.951-18.641 10.426-34.529 10.426Zm62.829-2.166V36.991h29.518v190.652h48.204v25.998h-77.722Zm203.65 0v-24.373l56.329-166.279h-53.079V36.991h84.493v24.914l-58.225 165.738h53.621v25.998h-83.139Zm-113.47 0 26.539-216.65h48.746l26.54 216.65h-29.789l-5.146-54.163h-31.685l-5.145 54.163h-30.06Zm37.913-79.89h25.998l-4.603-47.663-4.604-63.099h-7.583l-4.604 63.099-4.604 47.663Z" style="fill:#fff;fill-rule:nonzero"/></svg>