<svg xmlns="http://www.w3.org/2000/svg" xml:space="preserve" style="fill-rule:evenodd;clip-rule:evenodd;stroke-linejoin:round;stroke-miterlimit:2" viewBox="0 0 3833 4349"><path d="M2056.43 4340.82c-34.67 0-59.82-7.33-75.44-22-15.62-14.67-24.2-38.77-25.72-72.31v-28.29c0-6.67.19-13.43.57-20.29.38-6.86.95-16.19 1.72-28 1.14-19.82 5.81-36.2 14-49.16 8.19-12.95 17.62-24.38 28.29-34.29-8.38-20.2-15.24-39.82-20.57-58.87-5.34-19.05-8.39-37.15-9.15-54.3-3.43-30.48 1.91-54.58 16-72.3 14.1-17.72 37.35-26.58 69.73-26.58 31.63 0 54.4 8.1 68.3 24.29 13.91 16.2 19.53 39.73 16.86 70.59-1.52 25.15-7.9 48.11-19.14 68.87-11.24 20.77-27.53 42.2-48.87 64.3 12.19 25.53 25.53 50.11 40.01 73.73-.38-10.67-1.24-22.19-2.57-34.58-1.34-12.38-2.77-24.48-4.29-36.29l50.3-.57c1.52 12.57 2.85 26.67 4 42.29 1.14 15.63 1.9 31.25 2.28 46.87.38 15.62.19 30.1-.57 43.44 9.53 12.95 18.48 24.67 26.86 35.15 8.39 10.48 15.82 19.53 22.3 27.15l-40.01 37.72c-4.96-6.09-10.1-12.57-15.44-19.43-5.33-6.86-10.85-13.91-16.57-21.15-6.48 14.86-16.19 25.91-29.15 33.15-12.96 7.24-30.86 10.86-53.73 10.86Zm-897.9-4.57v-457.24h90.3c33.91 0 58.58 7.23 74.02 21.71 15.43 14.48 23.72 38.11 24.86 70.88.76 20.95 1.14 39.43 1.14 55.44 0 16-.38 33.34-1.14 52.01-1.52 42.68-15.62 70.11-42.3 82.3l49.73 174.9h-65.73l-42.29-164.61h-26.29v164.61h-62.3Zm1726.08 0v-457.24h96.02l29.73 145.17 37.15 257.2h13.14l-10.86-224.05-4.57-178.32h60.01v457.24h-100.02l-30.86-156.61-30.3-246.34h-14.28l9.71 228.62 5.15 174.33h-60.02Zm-273.2 0v-457.24h96.02l29.72 145.17 37.15 257.2h13.15l-10.86-224.05-4.57-178.32h60.01v457.24h-100.02l-30.87-156.61-30.29-246.34h-14.29l9.72 228.62 5.14 174.33h-60.01Zm-1966.138 0v-457.24h96.021l29.721 145.17 37.15 257.2h13.146l-10.859-224.05-4.573-178.32h60.013v457.24H765.87l-30.864-156.61-30.292-246.34h-14.289l9.716 228.62 5.144 174.33h-60.013Zm2491.398 0 56.01-457.24h102.88l56.01 457.24h-62.87l-10.86-114.31h-66.87l-10.86 114.31h-63.44Zm-2736.022 0 56.012-457.24h102.879l56.012 457.24h-62.87l-10.86-114.31H474.95l-10.86 114.31h-63.442Zm1966.142 0 56.01-457.24h102.88l56.01 457.24h-62.87l-10.86-114.31h-66.87l-10.86 114.31h-63.44Zm-711.01 0v-114.31l-5.15-23.44-69.15-319.49h63.44l22.29 120.02 13.14 132.6h12.58l13.14-132.6 22.29-120.02h63.45l-69.16 319.49-5.15 23.44v114.31h-61.72Zm-737.306 0v-457.24h94.876c34.29 0 59.16 7.52 74.59 22.57 15.43 15.05 23.53 39.72 24.29 74.02.76 31.24 1.24 61.06 1.43 89.45.19 28.38.19 56.68 0 84.87-.19 28.2-.67 57.92-1.43 89.16-.76 34.68-8.86 59.54-24.29 74.59-15.43 15.05-40.49 22.58-75.16 22.58h-94.306Zm474.956 0v-457.24h163.47v54.86h-101.17v143.46h95.45v54.87h-95.45v149.18h101.17v54.87h-163.47Zm664.72-44.58c14.48 0 24.58-3.34 30.29-10.01 5.72-6.66 9.72-17.05 12-31.14-12.57-17.15-24.86-35.16-36.86-54.02-12-18.86-23.34-37.81-34.01-56.87-3.05 4.58-5.62 9.63-7.71 15.15-2.1 5.53-3.53 11.53-4.29 18-1.14 7.24-1.91 14.1-2.29 20.58-.38 6.48-.57 13.91-.57 22.29 0 8.38.19 19.24.57 32.58.77 14.1 4.58 24.86 11.43 32.29 6.86 7.43 17.34 11.15 31.44 11.15Zm-1077.377-10.29h32.007c24.77 0 37.34-11.62 37.72-34.87 1.91-92.59 1.91-185.18 0-277.77-.38-23.25-12.76-34.87-37.15-34.87h-32.577v347.51Zm-500.108-113.74h54.869l-9.716-100.59-9.717-133.18h-16.003l-9.717 133.18-9.716 100.59Zm1966.135 0h54.87l-9.71-100.59-9.72-133.18h-16l-9.72 133.18-9.72 100.59Zm769.88 0h54.87l-9.71-100.59-9.72-133.18h-16l-9.72 133.18-9.72 100.59Zm-1995.85-50.87h27.43c24.01 0 36.58-11.43 37.72-34.29 1.91-38.11 1.91-76.02 0-113.74-1.14-23.25-13.53-34.87-37.15-34.87h-28v182.9Zm825.32-62.3c14.86-17.14 25.24-32.39 31.15-45.72 5.9-13.34 9.24-26.49 10-39.44 2.28-16.76 1.14-29.91-3.43-39.44-4.57-9.52-13.91-14.29-28.01-14.29-11.81 0-20.1 4.58-24.86 13.72-4.76 9.15-6.76 20.58-6 34.3 0 12.95 2 27.24 6 42.86 4 15.62 9.05 31.63 15.15 48.01ZM3352 2169c-80-16-133-28-184-29-69-1-110-18-110-18-98-43-78-55-171-65s-83-83-83-83c59-42 46-77 37-92s0-49-18-65c-86-73-134-41-134-41-88 74-46 157-46 157 6 22 51 23 51 23 13 11 8 61 9 78s-29 26-37 18c-43-42-83-59-83-59-18-45-78-139-78-139s-13-214 0-221c70-35 121-138 78-147l-23-14c1 4-9 32-9 32-69 82-83 111-83 111-37 215-23 253-23 253 45 83 85 165 124 230 38 62 46 102 46 102s-2-103 31-107c16-2 62 36 76 107 1 5 9-3 14-5 0 0 14-94 99-99 53-4 31 115 73 110l44-43c109 13 205 53 239 60 21 4 98 3 161 4v1461h-557v-124c11-51 53-46 65-88 8-32-14-42-33-51-21-9-28-75-18-235 7-117-22-89-32-207-6-56-2-133-1-191 2-73 1-122 1-122-102-56-105-134-155-134-20 0-11 134-16 134-4 96 83 368 83 368 3 60 51 387 51 387-33 107-3 229 6 263H400V2086l-168 188-104 122c-72 48-88 94-88 94l-22-31c-36-61 42-98 56-140 14-41-16-141 29-148 58-9 103-63 103-63 82-90 133-177 194-231v209l4-5 119-130s36-31 61-49c96-70 329-289 393-403 17-30 22-78 44-113 87-138 94-256 9-432-3-15 0-17 87-109 23-24 59-67 97-130 49-83 50-146 41-291 0 0-67-70-106-14-4 6 40 20 60 42-2 85-5 157-53 222-51 68-92 86-82 73 0 0 10-65-10-100-12-19-38-29-66-39 0 0-11-110-4-144 17-90 89-71 61-126 0 0-54-22-82 7-14 15-22 88-31 119-13 46-20 101-16 139 0 0-41 13-82 59-16 17-36 32-46 45 0 0-37 4-40 27 0 0 13 35 45 45 0 0 12 41 41 63 56 42 56 40 9 98-29 36-19 120-9 187 24 164-31 253-59 276-31 27-133 62-145 153-67 110-155 260-202 292-13 8-26 18-38 29V2h2952v2167c27 5 39 11 74 17 0 0 129 14 148 18 0 0 36 22 55 28 0 0 1 13-60-5-29-8-26 1-28 0-3 0 20 18 37 74 0 0-17 0-41-9s-67-36-102-60c-5-4-41-5-83-5v-58Zm-952.38 135.25 9.38.75 3-2 196-6c51-10 74-36 91-30 30 10 53 36 76 62 68 78 95 76 135 143 43 70 26 159-92 175-33 3-81-57-99-96-24-50-36-107-63-138-98 49-205 9-331-29l-9 8c-21 45-28 93-19 135 74 65 264 91 272 122-170 31-255-34-272-122-38-33-46-76 19-135l4-7v-1c-12 0-42 4-64 42 0 0-65 14-74-46 0 0-94 18-133 4-13-5-26-41-14-55 0 0 33-59 262-33l5 1 82 6-.08.08L2406 2305l-6.38-.75L2384 2303c47-42 112-70 190-71-89 15-147 59-162 71h-23l10.62 1.25ZM3091 2308c-109-58-213-75-167-76 74-2 130 30 167 76 60 33 122 78 160 141 43 70-71 177-189 193-68 9-72 7-69 5 164-1 193-219 98-339Zm-102 339 4-1v1h-4Zm-605.08-343.92-.92.92v-1l.92.08Z"/></svg>