<svg xmlns="http://www.w3.org/2000/svg" xml:space="preserve" style="fill-rule:evenodd;clip-rule:evenodd;stroke-linejoin:round;stroke-miterlimit:2" viewBox="0 0 3319 4539"><text x="792.689" y="1515.58" style="font-family:&quot;BigShouldersDisplay-Bold&quot;,&quot;Big Shoulders Display&quot;;font-weight:700;font-size:96px" transform="matrix(5.56642 0 0 5.56644 -4035.054157 -4132.210303)">G<tspan x="831.665" y="1515.58">L</tspan>AZ<tspan x="940.241px 980.945px" y="1515.58px 1515.58px">SH</tspan>NE<tspan x="1101.42px 1138.87px 1179.18px 1212.69px" y="1515.58px 1515.58px 1515.58px 1515.58px">YDER</tspan></text><path d="M2121.78 1927.19c-21.96-38.51-45.38-75.19-45.38-75.19s-13-214 0-221c70-35 121-138 78-147l-23-14c1 4-9 32-9 32-69 82-83 111-83 111-37 215-23 253-23 253 25.78 47.54 49.91 94.76 73.18 138.61l-117.64 282.82c-5.76 4.31-11.26 8.85-16.54 13.57l-.06.2-81.94-6.2-5-1c-229-26-262 33-262 33-12 14 1 50 14 55 39 14 133-4 133-4 9 60 74 46 74 46 22-38 52-42 64-42v1l-4 7c-65 59-57 102-19 135l1.63 7.43L1390.2 3686H391.402V2084l-.294.33V3686H2923.7V2225h-.3v-58c-80-16-133-28-184-29-69-1-110-18-110-18-98-43-78-55-171-65s-83-83-83-83c59-42 46-77 37-92s0-49-18-65c-86-73-134-41-134-41-88 74-46 157-46 157 6 22 51 23 51 23 13 11 8 61 9 78s-29 26-37 18c-43-42-83-59-83-59-6.75-16.89-19.42-40.68-32.62-63.81L2923.4 0v2167l.3.06V0H391.108v1875.27l.294-.27v209l4-5 119-130s36-31 61-49c96-70 329-289 393-403 17-30 22-78 43.998-113 87-138 94-256 9-432-3-15 0-17 87-109 23-24 59-67 97-130 49-83 50-146 41-291 0 0-67-70-106-14-4 6 40 20 60 42-2 85-5 157-53 222-51 68-92 86-82 73 0 0 10-65-10-100-12-19-38-29-65.998-39 0 0-11-110-4-144 16.998-90 88.998-71 60.998-126 0 0-53.998-22-81.998 7-14 15-22 88-31 119-13 46-20 101-16 139 0 0-41 13-82 59-16 17-36 32-46 45 0 0-37 4-40 27 0 0 13 35 45 45 0 0 12 41 41 63 56 42 56 40 9 98-29 36-19 120-9 187 24 164-31 253-59 276-31 27-133 62-145 153-67 110-155 260-202 292-13 8-26 18-38 29V0H2923.4l-801.62 1927.19Zm-32.2 77.42-117.64 282.82c45.22-34.38 104.22-56.54 173.46-57.43-89 15-147 59-162 71l196-6c51-10 74-36 91-30 30 10 53 36 76 62 68 78 95 76 135 143 43 70 26 159-92 175-33 3-81-57-99-96-24-50-36-107-63-138-89.56 44.78-186.64 15.23-298.88-19.19l-56.6 136.08c76.25 62.91 260.61 88.58 268.48 119.11-165.17 30.12-250.1-30.38-270.37-114.57l58.49-140.62-32.12-9.81-9 8c-21 45-28 93-19 135l3.52 2.89L1390.2 3686h927.2c-9-34-39-156-6-263 0 0-48-327-51-387 0 0-87-272-83-368 5 0-4-134 16-134 50 0 53 78 155 134 0 0 1 49-1 122-1 58-5 135 1 191 10 118 39 90 32 207-10 160-3 226 18 235 19 9 41 19 33 51-12 42-54 37-65 88v124h557V2225c-63-1-140 0-161-4-34-7-130-47-239-60l-44 43c-42 5-20-114-73-110-85 5-99 99-99 99-5 2-13 10-14 5-14-71-60-109-76-107-33 4-31 107-31 107s-8-40-46-102c-16.66-27.77-33.5-58.64-50.82-91.39ZM2662.4 2306c95 120 66 338-98 339-3 2 1 4 69-5 118-16 232-123 189-193-38-63-100-108-160-141-37-46-93-78-167-76-46 1 58 18 167 76Z" style="fill:#fff" transform="translate(.0005981 -.0028713) scale(.999998)"/><path d="M1390.1954546 3685.9895452h927.1982588c-8.999983-33.9999271-38.9999267-155.9996656-5.9999887-262.9994362 0 0-47.9999099-326.999299-50.9999042-386.9991705 0 0-86.9998367-271.9994169-82.9998442-367.9992111 4.9999906 0-3.9999925-133.9997128 15.99997-133.9997128 49.9999061 0 52.9999005 77.9998328 154.999709 133.9997128 0 0 .999998 48.999895-.9999982 121.9997385-.9999981 57.9998756-4.9999906 134.9997106.9999981 190.9995905 9.9999812 117.999747 38.9999268 89.9998071 31.99994 206.9995563-9.9999813 159.999657-2.9999944 225.9995156 17.9999661 234.9994963 18.9999643 8.9999807 40.999923 18.9999592 32.999938 50.9998906-11.9999774 41.99991-53.9998985 36.9999207-64.9998779 87.9998114v123.9997342h556.998954V2224.992677c-62.9998816-.9999978-139.999737 0-160.9996976-3.9999914-33.9999362-6.999985-129.9997559-46.9998993-238.9995512-59.9998714l-43.9999174 42.9999078c-41.9999211 4.9999893-19.9999624-113.9997556-72.9998629-109.9997642-84.9998404 4.9999893-98.999814 98.9997878-98.999814 98.9997878-4.9999907 1.9999957-12.9999757 9.9999786-13.9999738 4.9999893-13.9999737-70.9998478-59.9998873-108.9997664-75.9998573-106.9997706-32.999938 3.9999914-30.9999418 106.9997706-30.9999418 106.9997706s-7.999985-39.9999143-45.9999136-101.9997814c-38.9999267-64.9998606-78.9998516-146.9996849-123.9997671-229.999507 0 0-13.9999737-37.9999185 22.9999568-252.9994576 0 0 13.9999737-28.9999378 82.9998441-110.999762 0 0 9.9999812-27.99994 8.9999831-31.9999315l22.9999568 13.99997c42.9999193 8.9999807-7.999985 111.99976-77.9998535 146.999685-12.9999756 6.999985 0 220.9995262 0 220.9995262s59.9998873 93.9997985 77.9998535 138.999702c0 0 39.999925 16.9999636 82.9998442 58.9998735 7.999985 7.9999829 37.9999286-.9999978 36.9999305-17.9999614-.9999981-16.9999635 3.9999925-66.9998564-8.9999831-77.9998328 0 0-44.9999155-.9999978-50.9999042-22.9999507 0 0-41.9999212-82.999822 45.9999136-156.9996634 0 0 47.9999098-31.9999314 133.9997483 40.999912 17.9999662 15.9999658 8.9999831 49.999893 17.9999662 64.9998608 8.9999831 14.9999678 21.9999587 49.9998928-36.9999305 91.9998027 0 0-9.9999812 72.9998436 82.9998442 82.9998221 92.9998253 9.9999786 72.9998629 21.9999529 170.9996788 64.9998607 0 0 40.999923 16.9999635 109.9997935 17.9999614 50.9999042.9999979 103.9998047 12.9999721 183.9996545 28.9999378v57.9998757c41.999921 0 77.9998535.9999979 82.999844 4.9999893 34.9999344 23.9999485 77.9998536 50.9998907 101.9998085 59.9998714 23.999955 8.9999807 40.999923 8.9999807 40.999923 8.9999807-16.999968-55.99988-39.9999248-73.9998414-36.9999305-73.9998414 1.9999963.9999979-.999998-7.9999828 27.9999475 0 60.9998854 17.9999614 59.9998873 4.9999893 59.9998873 4.9999893-18.9999643-5.9999871-54.9998967-27.99994-54.9998967-27.99994-18.9999644-3.9999914-147.9997221-17.9999614-147.9997221-17.9999614-34.9999343-5.9999871-46.9999118-11.9999743-73.999861-16.9999636V-.0025535m0 0H391.3973302v1874.9959808c11.9999775-10.9999764 24.999953-20.999955 37.9999286-28.9999379 46.9999118-31.9999314 134.9997465-181.9996098 201.9996207-291.999374 11.9999775-90.999805 113.999786-125.99973 144.9997277-152.999672 27.9999474-22.9999508 82.9998442-111.99976 58.9998892-275.9994084-9.9999812-66.9998564-19.9999624-150.9996763 8.9999831-186.9995992 46.9999118-57.9998756 46.9999118-55.99988-8.999983-97.9997899-28.9999456-21.9999528-40.999923-62.999865-40.999923-62.999865-31.99994-9.9999785-44.9999156-44.9999035-44.9999156-44.9999035 2.9999944-22.9999507 39.999925-26.9999421 39.999925-26.9999421 9.9999811-12.9999721 29.9999436-27.99994 45.9999135-44.9999035 40.999923-45.9999014 81.999846-58.9998736 81.999846-58.9998736-3.9999924-37.9999185 2.9999944-92.9998006 15.99997-138.999702 8.999983-30.9999336 16.999968-103.999777 30.9999418-118.999745 27.9999474-28.9999378 81.999846-6.999985 81.999846-6.999985 27.9999474 54.9998822-43.9999174 35.999923-60.9998855 125.99973-6.9999868 33.9999271 3.9999925 143.9996913 3.9999925 143.9996913 27.9999475 9.9999786 53.9998986 19.9999571 65.999876 38.9999164 19.9999625 34.999925 9.9999813 99.9997857 9.9999813 99.9997857-9.9999812 12.999972 30.9999418-4.9999893 81.999846-72.9998436 47.9999099-64.9998606 50.9999043-136.9997063 52.9999005-221.999524-19.9999624-21.999953-63.9998798-35.999923-59.9998873-41.99991 38.9999267-55.99988 105.999801 13.99997 105.999801 13.99997 8.999983 144.9996891 7.9999849 207.999554-40.999923 290.9993761-37.9999287 62.999865-73.9998611 105.9997728-96.999818 129.9997214-86.9998366 91.9998028-89.999831 93.9997985-86.9998366 108.9997663 84.9998404 175.9996228 77.9998536 293.9993698-8.999983 431.999074-21.9999587 34.999925-26.9999494 82.999822-43.9999174 112.9997578-63.9998798 113.9997556-296.9994423 332.9992861-392.999262 402.999136-24.999953 17.9999615-60.9998855 48.999895-60.9998855 48.999895L395.3973227 2078.99299l-3.9999925 4.9999893v-208.999552c-60.9998855 53.9998842-111.9997897 140.9996977-193.9996357 230.9995048 0 0-44.9999155 53.9998842-102.9998066 62.999865-44.9999155 6.999985-14.9999718 106.9997706-28.9999455 147.9996827-13.9999737 41.99991-91.9998273 78.9998307-55.9998949 139.9996999l21.9999587 30.9999335s15.99997-45.9999014 87.9998348-93.9997985l103.9998047-121.9997384 167.9996845-187.999597v1601.9965659h998.7981244m593.198886-1384.9970311c14.9999719-11.9999743 72.999863-55.99988 161.9996958-70.9998478-77.9998535.9999978-142.9997314 28.9999378-189.9996432 70.9998478l-81.999846-5.9999871-4.9999906-.9999979c-228.99957-25.9999443-261.999508 32.9999293-261.999508 32.9999293-11.9999775 13.99997.9999981 49.9998928 13.9999737 54.999882 38.9999268 13.99997 132.9997502-3.9999914 132.9997502-3.9999914 8.9999831 59.9998714 73.999861 45.9999014 73.999861 45.9999014 21.9999588-37.9999185 51.9999024-41.99991 63.9998799-41.99991v.999998l-3.9999925 6.999985c-64.999878 58.9998734-56.999893 101.9997813-18.9999643 134.9997105 16.999968 87.9998114 101.9998085 152.999672 271.9994892 121.9997385-7.999985-30.9999335-197.9996282-56.9998778-271.9994892-121.9997385-8.9999831-41.99991-1.9999963-89.999807 18.9999643-134.9997106l8.9999831-7.9999828c125.9997634 37.9999185 232.9995625 77.9998328 330.9993784 28.9999378 26.9999493 30.9999335 38.9999268 87.9998114 62.9998817 137.9997042 17.9999662 38.9999164 65.9998761 98.9997878 98.9998141 95.9997942 117.9997784-15.9999657 134.9997465-104.999775 91.9998273-174.9996249-39.999925-66.9998564-66.9998742-64.9998606-134.9997465-142.9996934-22.9999568-25.9999443-45.9999136-51.9998886-75.9998573-61.9998671-16.999968-5.9999872-39.9999249 19.999957-90.9998291 29.9999357m482.999093 10.9999764c94.9998216 119.9997427 65.999876 337.9992754-97.999816 338.9992733-2.9999944 1.9999957.9999981 3.9999914 68.9998704-4.9999893 117.9997784-15.9999657 231.9995644-122.9997363 188.9996451-192.9995863-37.9999286-62.999865-99.9998122-107.9997685-159.9996995-140.9996977-36.9999305-45.9999014-92.9998254-77.9998328-166.9996864-75.9998371-45.9999136.9999978 57.999891 17.9999614 166.9996864 75.999837"/></svg>